<?xml version="1.0" encoding="iso-8859-1"?>
<!-- Generator: Adobe Illustrator 16.0.0, SVG Export Plug-In . SVG Version: 6.00 Build 0)  -->
<!DOCTYPE svg PUBLIC "-//W3C//DTD SVG 1.1//EN" "http://www.w3.org/Graphics/SVG/1.1/DTD/svg11.dtd">
<svg xmlns="http://www.w3.org/2000/svg" xmlns:xlink="http://www.w3.org/1999/xlink" version="1.1" id="Capa_1" x="0px" y="0px" width="512px" height="512px" viewBox="0 0 47.809 47.808" style="enable-background:new 0 0 47.809 47.808;" xml:space="preserve">
<g>
	<g id="Layer_1_copy_40_">
		<path d="M31.51,31.383c-0.218-0.628-0.435-1.255-0.65-1.885c-0.023-0.072-0.062-0.098-0.139-0.096    c-0.177,0.006-0.353,0.008-0.527-0.002c-0.107-0.007-0.148,0.039-0.182,0.133c-0.25,0.703-0.502,1.405-0.757,2.107    c-0.086,0.241-0.172,0.481-0.268,0.746c0.19,0,0.358-0.004,0.526,0.002c0.075,0.002,0.107-0.027,0.129-0.096    c0.047-0.15,0.104-0.298,0.148-0.447c0.023-0.07,0.059-0.101,0.139-0.099c0.254,0.006,0.51,0.002,0.764,0.002    c0.3,0,0.298,0,0.394,0.289c0.037,0.115,0.056,0.267,0.136,0.328c0.078,0.058,0.229,0.02,0.346,0.021    c0.09,0.002,0.18,0.001,0.281,0.001c-0.013-0.049-0.019-0.072-0.025-0.096C31.721,31.991,31.617,31.688,31.51,31.383z     M30.005,31.243c0.14-0.401,0.275-0.797,0.423-1.219c0.135,0.418,0.264,0.813,0.395,1.219    C30.546,31.243,30.283,31.243,30.005,31.243z M29.686,25.712c0.451,0.294,0.955,0.386,1.483,0.401    c0.209-0.021,0.423-0.031,0.627-0.069c0.779-0.147,1.354-0.569,1.64-1.324c0.268-0.708,0.27-1.435,0.037-2.156    c-0.183-0.564-0.541-0.984-1.082-1.24c-0.365-0.173-0.754-0.237-1.154-0.244c-0.539-0.009-1.059,0.072-1.52,0.368    c-0.646,0.409-0.918,1.035-0.996,1.765c-0.045,0.413-0.021,0.823,0.084,1.224C28.943,24.968,29.219,25.407,29.686,25.712z     M30.693,22.915c0.006-0.118,0.049-0.238,0.09-0.351c0.062-0.163,0.186-0.25,0.361-0.255c0.182-0.007,0.317,0.065,0.396,0.234    c0.106,0.229,0.121,0.476,0.14,0.722c0.008,0.107,0,0.215,0,0.323c0.012,0.001,0.022,0.002,0.034,0.003    c-0.041,0.307-0.063,0.617-0.129,0.92c-0.057,0.271-0.226,0.381-0.467,0.358c-0.14-0.01-0.261-0.067-0.306-0.201    c-0.063-0.186-0.133-0.376-0.143-0.566C30.658,23.708,30.676,23.311,30.693,22.915z M35.018,29.499    c-0.002,0.936-0.002,1.871,0,2.805c0,0.066-0.027,0.088-0.09,0.088c-0.24-0.001-0.479,0.003-0.72-0.005    c-0.041-0.001-0.099-0.043-0.116-0.081c-0.275-0.582-0.546-1.166-0.816-1.749c-0.086-0.185-0.172-0.368-0.258-0.553    c-0.006,0.001-0.013,0.001-0.019,0.003c0,0.748,0,1.496,0,2.244c0,0.139,0,0.139-0.144,0.14c-0.151,0-0.305,0-0.471,0    c0-0.051,0-0.085,0-0.121c0-0.912,0-1.824-0.002-2.738c0-0.099,0.023-0.131,0.125-0.129c0.23,0.006,0.465,0.006,0.697,0    c0.08-0.002,0.119,0.027,0.152,0.1c0.332,0.705,0.666,1.408,1,2.111c0.01,0.021,0.021,0.039,0.041,0.075    c0.004-0.045,0.006-0.067,0.006-0.094c0-0.69,0.002-1.383-0.002-2.074c0-0.097,0.029-0.123,0.123-0.118    c0.133,0.008,0.266,0.004,0.396,0.002C34.994,29.404,35.018,29.431,35.018,29.499z M47.363,15.724    c-0.125-0.018-0.256-0.005-0.379-0.005c0,0.233,0,0.456,0,0.679c0.012,0,0.025,0.001,0.039,0.001c0-0.105,0-0.209,0-0.307    c0.125-0.039,0.203-0.019,0.25,0.087c0.029,0.061,0.066,0.119,0.106,0.172c0.019,0.024,0.054,0.037,0.08,0.055    c0.007-0.007,0.013-0.015,0.019-0.022c-0.062-0.098-0.123-0.196-0.188-0.298c0.047-0.013,0.084-0.019,0.115-0.034    c0.088-0.041,0.123-0.122,0.092-0.203C47.477,15.797,47.413,15.732,47.363,15.724z M47.33,16.011    c-0.041,0.017-0.092,0.009-0.105,0.01c-0.186,0-0.238-0.076-0.188-0.224c0.004-0.013,0.015-0.034,0.021-0.033    c0.111,0.008,0.224,0.014,0.332,0.035c0.021,0.004,0.041,0.084,0.031,0.121C47.41,15.956,47.367,15.995,47.33,16.011z     M36.43,25.986c-0.429-0.007-0.854-0.007-1.279,0c-0.086,0-0.119-0.019-0.119-0.111c0.004-1.521,0.002-3.043,0-4.565    c0-0.078,0.021-0.107,0.104-0.106c0.688,0.002,1.375,0.002,2.062-0.001c0.076,0,0.104,0.03,0.127,0.096    C37.637,22.2,37.951,23.1,38.268,24c0.01,0.029,0.024,0.057,0.059,0.081c0-0.953,0-1.906,0-2.868c0.51,0,1.01,0,1.518,0    c0,1.585,0,3.169,0,4.771c-0.043,0-0.074,0-0.104,0c-0.683,0-1.361-0.002-2.043,0.002c-0.078,0-0.109-0.024-0.136-0.1    c-0.311-0.9-0.625-1.802-0.938-2.704c-0.014-0.034-0.031-0.068-0.07-0.099c0,0.052,0,0.103,0,0.154    c0,0.875-0.002,1.748,0.002,2.623C36.557,25.96,36.527,25.986,36.43,25.986z M47.184,15.435c-0.342,0.004-0.625,0.287-0.621,0.625    c0.002,0.34,0.293,0.621,0.641,0.618c0.338-0.003,0.607-0.28,0.605-0.622C47.809,15.698,47.538,15.431,47.184,15.435z     M47.189,16.616c-0.299,0.002-0.543-0.251-0.543-0.564c0-0.31,0.246-0.557,0.551-0.554c0.307,0.003,0.529,0.243,0.527,0.567    C47.725,16.378,47.496,16.614,47.189,16.616z M37.747,30.947c0.31,0.231,0.338,0.715,0.088,1.053    c-0.166,0.225-0.394,0.348-0.659,0.408c-0.359,0.082-0.718,0.082-1.064-0.054c-0.322-0.125-0.488-0.372-0.52-0.712    c-0.021-0.219-0.017-0.219,0.204-0.219c0.123,0,0.244-0.004,0.365,0.003c0.026,0.001,0.078,0.038,0.078,0.06    c-0.002,0.457,0.362,0.547,0.705,0.479c0.084-0.017,0.174-0.054,0.239-0.105c0.222-0.175,0.17-0.484-0.095-0.574    c-0.202-0.069-0.413-0.112-0.618-0.179c-0.132-0.04-0.262-0.095-0.387-0.155c-0.594-0.297-0.469-1.026-0.145-1.307    c0.143-0.122,0.305-0.199,0.484-0.24c0.301-0.065,0.604-0.068,0.899,0.023c0.379,0.121,0.623,0.466,0.582,0.838    c-0.205,0-0.404,0-0.582,0c-0.062-0.115-0.099-0.236-0.175-0.32c-0.174-0.195-0.582-0.16-0.739,0.049    c-0.158,0.207-0.06,0.467,0.215,0.547c0.215,0.063,0.438,0.106,0.649,0.18C37.441,30.779,37.611,30.842,37.747,30.947z     M28.529,31.491c-0.041-0.279-0.113-0.533-0.477-0.58c0.061-0.024,0.096-0.039,0.131-0.053c0.287-0.125,0.455-0.373,0.442-0.674    c-0.012-0.318-0.151-0.572-0.459-0.688c-0.166-0.062-0.354-0.082-0.534-0.088c-0.396-0.015-0.796-0.002-1.191-0.006    c-0.096,0-0.121,0.028-0.121,0.123c0.004,0.911,0.002,1.825,0.002,2.739c0.002,0.037,0.004,0.075,0.008,0.115    c0.225,0,0.436,0,0.658,0c0-0.397,0-0.788,0-1.186c0.229,0,0.447-0.007,0.666,0.004c0.096,0.004,0.172,0.069,0.195,0.172    c0.021,0.08,0.033,0.16,0.045,0.242c0.037,0.254,0.072,0.508,0.108,0.768c0.236,0,0.466,0,0.697,0    c-0.024-0.082-0.058-0.15-0.07-0.223C28.596,31.936,28.561,31.714,28.529,31.491z M27.635,30.688    c-0.201,0.021-0.406,0.013-0.611,0.011c-0.021,0-0.057-0.043-0.057-0.065c-0.005-0.24-0.003-0.479-0.003-0.722    c0.251,0,0.488-0.019,0.722,0.006c0.174,0.018,0.264,0.18,0.26,0.389C27.939,30.502,27.818,30.669,27.635,30.688z M45.852,31.357    c-0.041-0.24-0.168-0.408-0.445-0.445c0.055-0.022,0.086-0.037,0.115-0.051c0.356-0.154,0.457-0.412,0.453-0.688    c-0.004-0.338-0.211-0.614-0.529-0.701c-0.156-0.042-0.324-0.061-0.488-0.063c-0.383-0.008-0.766-0.002-1.148-0.002    c-0.041,0-0.082,0.004-0.129,0.008c0,0.994,0,1.978,0,2.97c0.217,0,0.428,0,0.652,0c0-0.396,0-0.786,0-1.188    c0.193,0,0.375,0,0.559,0c0.226,0,0.299,0.065,0.332,0.289c0.041,0.274,0.082,0.551,0.125,0.825    c0.004,0.029,0.033,0.076,0.051,0.077c0.218,0.005,0.435,0.003,0.632,0.003c-0.041-0.225-0.082-0.438-0.119-0.649    C45.889,31.613,45.874,31.484,45.852,31.357z M44.964,30.691c-0.188,0.014-0.379,0.008-0.567,0.012    c-0.062,0.002-0.08-0.032-0.08-0.088c0.002-0.106,0-0.213,0-0.322c0-0.106,0.002-0.215,0-0.321c0-0.06,0.021-0.082,0.082-0.08    c0.184,0.008,0.365,0.004,0.549,0.014c0.217,0.008,0.338,0.139,0.346,0.365C45.301,30.491,45.163,30.675,44.964,30.691z     M42.975,31.877c0.039,0,0.078,0,0.125,0c0,0.173,0,0.335,0,0.505c-0.677,0-1.349,0-2.023,0c0-0.992,0-1.976,0-2.972    c0.045-0.002,0.086-0.006,0.127-0.006c0.576,0,1.152,0.002,1.729-0.002c0.104-0.002,0.141,0.025,0.133,0.131    c-0.01,0.117-0.002,0.235-0.002,0.367c-0.445,0-0.885,0-1.338,0c0,0.221-0.002,0.43,0.004,0.641c0,0.018,0.069,0.049,0.106,0.049    c0.332,0.004,0.666,0.002,0.998,0.003c0.144,0,0.144,0,0.144,0.141c0,0.115,0,0.232,0,0.357c-0.062,0.003-0.111,0.007-0.162,0.008    c-0.312,0-0.621,0-0.935,0c-0.159,0-0.159-0.001-0.159,0.165c0,0.168,0.004,0.337-0.002,0.504    c-0.002,0.081,0.021,0.111,0.108,0.11C42.208,31.874,42.592,31.877,42.975,31.877z M41.535,25.893c-0.195,0-0.383,0-0.578,0    c0-3.461,0-6.917,0-10.382c0.189,0,0.381,0,0.578,0C41.535,18.972,41.535,22.432,41.535,25.893z M40.43,29.411    c0.028,0,0.057,0.004,0.094,0.008c0,0.158,0,0.312,0,0.48c-0.418,0-0.834,0-1.269,0c0,0.229-0.002,0.445,0.005,0.661    c0.002,0.021,0.065,0.054,0.104,0.054c0.314,0.004,0.629,0.002,0.943,0.002c0.143,0,0.143,0,0.143,0.142c0,0.121,0,0.241,0,0.371    c-0.406,0-0.793,0-1.189,0c0,0.42,0,0.829,0,1.26c-0.209,0-0.402,0.002-0.596-0.003c-0.02,0-0.045-0.035-0.057-0.059    c-0.01-0.021-0.002-0.049-0.002-0.076c0-0.904,0-1.812-0.002-2.717c0-0.08,0.012-0.125,0.106-0.125    C39.283,29.411,39.855,29.411,40.43,29.411z M21.352,29.423c0.185,0.004,0.369,0.001,0.577,0.001    c-0.09,0.17-0.169,0.322-0.25,0.473c-0.237,0.444-0.475,0.89-0.709,1.337c-0.024,0.043-0.035,0.102-0.035,0.15    c-0.004,0.297-0.005,0.595,0,0.893c0.001,0.09-0.029,0.118-0.117,0.114c-0.143-0.006-0.287-0.006-0.43,0    c-0.082,0.002-0.104-0.026-0.103-0.104c0.004-0.293,0.005-0.588,0-0.881c-0.002-0.072-0.02-0.15-0.054-0.213    c-0.293-0.558-0.593-1.109-0.89-1.664c-0.015-0.029-0.026-0.059-0.048-0.104c0.247,0,0.472-0.002,0.697,0.003    c0.03,0.001,0.071,0.041,0.086,0.071c0.181,0.394,0.358,0.787,0.536,1.182c0.009,0.021,0.018,0.039,0.034,0.075    c0.086-0.185,0.166-0.355,0.246-0.529c0.111-0.238,0.225-0.479,0.333-0.72C21.252,29.445,21.284,29.42,21.352,29.423z     M19.763,16.746c-0.399,0-0.785,0-1.179,0c0-0.429,0-0.849,0-1.276c1.409,0,2.815,0,4.229,0c0,0.422,0,0.841,0,1.271    c-0.388,0-0.773,0-1.169,0c0,1.168,0,2.327,0,3.497c-0.635,0-1.25,0-1.881,0C19.763,19.078,19.763,17.917,19.763,16.746z     M8.175,20.085c-0.001-1.494-0.001-2.987-0.001-4.481c0-0.141,0-0.141,0.141-0.141c1.122,0,2.243,0.001,3.364-0.002    c0.092,0,0.127,0.021,0.126,0.118c-0.005,0.337-0.002,0.673-0.002,1.011c0,0.032-0.004,0.063-0.006,0.108    c-0.604,0-1.204,0-1.811,0c0,0.181,0,0.347,0,0.525c0.56,0,1.113,0,1.672,0c0,0.416,0,0.819,0,1.234c-0.555,0-1.108,0-1.67,0    c0,0.188,0,0.365,0,0.549c0.622,0,1.237,0,1.864,0c0,0.412,0,0.817,0,1.23c-1.218,0-2.434,0-3.669,0    C8.179,20.184,8.175,20.135,8.175,20.085z M6.567,17.734c-0.166,0.764-0.333,1.528-0.499,2.292    C6.02,20.244,6.02,20.244,5.8,20.244c-0.563,0-1.125,0-1.688,0c-0.039,0-0.078,0-0.132,0c-0.148-1.029-0.295-2.054-0.442-3.079    c-0.012,0-0.023,0-0.035,0c-0.146,1.024-0.294,2.048-0.442,3.079c-0.123,0-0.237,0-0.351,0c-0.522,0-1.045-0.003-1.568,0.003    c-0.103,0.001-0.133-0.037-0.152-0.126c-0.133-0.636-0.27-1.272-0.407-1.907c-0.191-0.883-0.384-1.766-0.576-2.648    C0.001,15.538,0.003,15.51,0,15.469c0.56,0,1.106,0,1.668,0c0.135,1,0.27,1.998,0.404,2.996c0.011,0,0.021,0,0.032,0    c0.146-0.995,0.293-1.989,0.442-2.993c0.039-0.002,0.077-0.006,0.115-0.006c0.574,0,1.146,0.002,1.72-0.002    c0.089,0,0.118,0.022,0.131,0.115c0.093,0.655,0.195,1.308,0.292,1.961c0.046,0.308,0.088,0.615,0.131,0.922    c0.011,0,0.022,0.001,0.034,0.002c0.134-0.996,0.269-1.992,0.403-2.992c0.561,0,1.111,0,1.677,0    c-0.032,0.158-0.062,0.312-0.094,0.464C6.826,16.533,6.697,17.133,6.567,17.734z M27.201,21.2c0.08-0.001,0.105,0.024,0.104,0.104    c-0.004,0.132,0,0.265,0,0.397c0,1.378,0,2.757,0,4.136c0,0.146,0,0.146-0.146,0.146c-0.541,0-1.082-0.003-1.621,0.002    c-0.09,0-0.109-0.029-0.109-0.111c0.002-1.521,0.002-3.042,0.002-4.564c0-0.031,0.004-0.062,0.006-0.106c0.289,0,0.564,0,0.84,0    C26.583,21.203,26.893,21.206,27.201,21.2z M35.035,20.121c0-1.512,0-3.023-0.002-4.534c-0.002-0.097,0.025-0.126,0.125-0.126    c0.678,0.005,1.354,0.004,2.031,0c0.08,0,0.111,0.028,0.137,0.099c0.311,0.898,0.625,1.794,0.938,2.691    c0.012,0.032,0.027,0.062,0.041,0.095c0.01-0.001,0.021-0.003,0.027-0.004c0-0.954,0-1.91,0-2.872c0.506,0,1.002,0,1.51,0    c0,1.586,0,3.174,0,4.767c-0.027,0.002-0.057,0.006-0.082,0.006c-0.682,0-1.361-0.002-2.041,0.002    c-0.09,0-0.133-0.023-0.164-0.111c-0.291-0.851-0.588-1.701-0.883-2.551c-0.027-0.08-0.059-0.159-0.109-0.238    c-0.002,0.032-0.008,0.064-0.008,0.097c0,0.895-0.002,1.791,0.002,2.686c0,0.098-0.024,0.12-0.119,0.119    c-0.432-0.005-0.858-0.002-1.291-0.002c-0.03,0-0.062-0.002-0.104-0.005C35.038,20.197,35.035,20.158,35.035,20.121z     M9.452,29.508c-0.001,0.928-0.001,1.855,0,2.783c0.001,0.074-0.023,0.103-0.1,0.1C9.174,32.387,8.996,32.39,8.81,32.39    c0-0.83,0-1.646,0-2.461c-0.006-0.001-0.013-0.003-0.019-0.004c-0.065,0.203-0.13,0.405-0.195,0.61    c-0.188,0.596-0.376,1.19-0.568,1.787c-0.01,0.028-0.058,0.062-0.089,0.063c-0.122,0.008-0.244,0-0.365,0.006    c-0.073,0.004-0.108-0.026-0.13-0.096c-0.131-0.432-0.265-0.859-0.399-1.29c-0.107-0.347-0.216-0.694-0.342-1.04    c0,0.029,0,0.062,0,0.089c0,0.735-0.002,1.471,0.001,2.204c0.001,0.105-0.033,0.137-0.134,0.132    c-0.153-0.007-0.307-0.002-0.468-0.002c0-0.999,0-1.984,0-2.984c0.163,0,0.323,0,0.483,0c0.15,0,0.301,0.004,0.451-0.002    c0.081-0.002,0.112,0.026,0.134,0.103c0.188,0.659,0.38,1.317,0.57,1.977c0.003,0.01,0.008,0.02,0.022,0.051    c0.21-0.67,0.417-1.321,0.615-1.975c0.034-0.109,0.079-0.161,0.206-0.154c0.254,0.012,0.508,0.006,0.763,0.002    C9.426,29.404,9.453,29.43,9.452,29.508z M24.135,20.243c-0.014,0-0.027-0.003-0.051-0.006c0-1.588,0-3.175,0-4.768    c1.203,0,2.4,0,3.607,0c0,0.407,0,0.81,0,1.229c-0.6,0-1.201,0-1.812,0c0,0.182,0,0.348,0,0.525c0.558,0,1.107,0,1.664,0    c0,0.416,0,0.821,0,1.236c-0.555,0-1.104,0-1.666,0c0,0.188,0,0.36,0,0.545c0.039,0.002,0.076,0.006,0.115,0.006    c0.551,0,1.103,0.002,1.653-0.001c0.086,0,0.117,0.02,0.115,0.112c-0.008,0.344-0.004,0.688-0.002,1.031    c0.002,0.071-0.02,0.093-0.092,0.093C26.494,20.243,25.314,20.243,24.135,20.243z M46.025,25.893c-0.193,0-0.381,0-0.574,0    c0-3.461,0-6.917,0-10.382c0.188,0,0.379,0,0.574,0C46.025,18.972,46.025,22.432,46.025,25.893z M30.969,18.526    c0.157,0.013,0.305,0.016,0.446,0.04c0.119,0.019,0.199,0.1,0.226,0.219c0.028,0.125,0.047,0.252,0.067,0.379    c0.058,0.327,0.113,0.654,0.168,0.981c0.013,0.07,0.041,0.101,0.121,0.101c0.547-0.004,1.097-0.002,1.644-0.002    c0.03,0,0.062-0.004,0.076-0.005c-0.062-0.369-0.121-0.731-0.179-1.093c-0.035-0.222-0.056-0.447-0.097-0.667    c-0.063-0.332-0.271-0.534-0.598-0.615c-0.061-0.015-0.117-0.03-0.205-0.052c0.058-0.019,0.084-0.027,0.109-0.036    c0.254-0.08,0.482-0.198,0.643-0.424c0.178-0.256,0.201-0.549,0.174-0.844c-0.036-0.432-0.248-0.743-0.668-0.899    c-0.321-0.119-0.655-0.141-0.991-0.143c-0.886-0.005-1.771-0.002-2.654-0.002c-0.036,0-0.071,0-0.114,0c0,1.602,0,3.187,0,4.773    c0.61,0,1.215,0,1.832,0C30.969,19.67,30.969,19.109,30.969,18.526z M30.973,16.545c0.201-0.007,0.399-0.021,0.59,0.06    c0.164,0.071,0.211,0.21,0.209,0.376c-0.002,0.184-0.072,0.326-0.242,0.409c-0.174,0.086-0.359,0.08-0.559,0.067    C30.973,17.15,30.973,16.854,30.973,16.545z M13.03,18.916c-0.002-0.025-0.002-0.05-0.002-0.075c0-0.018,0.003-0.035,0.007-0.062    c0.601,0,1.19,0,1.779,0c0.019,0.082,0.031,0.159,0.055,0.232c0.067,0.212,0.233,0.298,0.517,0.275    c0.203-0.017,0.359-0.158,0.388-0.354c0.021-0.136-0.059-0.27-0.221-0.329c-0.187-0.069-0.38-0.122-0.572-0.18    c-0.362-0.111-0.731-0.201-1.083-0.336c-0.629-0.241-0.842-0.742-0.77-1.386c0.071-0.645,0.478-1.005,1.062-1.201    c0.516-0.172,1.047-0.178,1.582-0.135c0.338,0.026,0.665,0.099,0.963,0.266c0.433,0.243,0.637,0.622,0.649,1.11    c0,0.011,0,0.021-0.002,0.032c-0.001,0.006-0.005,0.012-0.013,0.028c-0.03,0.002-0.065,0.006-0.1,0.006    c-0.479,0-0.959-0.001-1.439,0.001c-0.083,0-0.129-0.011-0.14-0.11c-0.016-0.15-0.117-0.255-0.276-0.27    c-0.128-0.012-0.263,0.004-0.39,0.033c-0.113,0.025-0.18,0.115-0.186,0.236c-0.006,0.115,0.046,0.21,0.154,0.248    c0.205,0.071,0.416,0.127,0.624,0.189c0.325,0.097,0.656,0.177,0.974,0.294c0.75,0.274,1.062,0.837,0.916,1.624    c-0.112,0.598-0.501,0.943-1.052,1.137c-0.417,0.146-0.851,0.183-1.29,0.177c-0.392-0.005-0.778-0.047-1.148-0.184    C13.423,19.964,13.083,19.551,13.03,18.916z M16.208,25.99c-0.692,0.16-1.384,0.166-2.068-0.033    c-0.473-0.135-0.86-0.398-1.046-0.877c-0.069-0.176-0.121-0.373-0.123-0.562c-0.012-1.084-0.007-2.169-0.007-3.255    c0-0.014,0.003-0.027,0.006-0.054c0.625,0,1.244,0,1.873,0c0,0.047,0,0.089,0,0.131c0,0.992-0.001,1.984,0.004,2.976    c0,0.104,0.025,0.213,0.064,0.311c0.058,0.15,0.185,0.214,0.342,0.207c0.152-0.008,0.26-0.092,0.305-0.231    c0.034-0.105,0.049-0.226,0.049-0.335c0.004-0.931,0.003-1.863,0.003-2.794c0-0.085,0-0.17,0-0.261c0.63,0,1.248,0,1.882,0    c0,0.042,0,0.083,0,0.125c0,1.017,0.001,2.034-0.001,3.051C17.491,25.225,17.03,25.799,16.208,25.99z M20.552,25.975    c-0.515,0-1.011,0-1.518,0c-0.002-0.041-0.005-0.078-0.006-0.116c0-1.512,0.001-3.021-0.001-4.534    c0-0.101,0.027-0.126,0.125-0.125c0.677,0.004,1.354,0.004,2.031,0.001c0.08-0.001,0.117,0.021,0.144,0.1    c0.313,0.904,0.631,1.807,0.948,2.71c0.008,0.025,0.021,0.048,0.031,0.073c0.011-0.002,0.021-0.004,0.031-0.005    c0-0.955,0-1.91,0-2.871c0.506,0,1.003,0,1.509,0c0,1.587,0,3.174,0,4.768c-0.036,0.002-0.068,0.007-0.099,0.007    c-0.68,0-1.361,0-2.042,0.002c-0.081,0-0.117-0.023-0.144-0.103c-0.308-0.893-0.618-1.782-0.928-2.671    c-0.016-0.045-0.035-0.088-0.053-0.133c-0.009,0.001-0.019,0.003-0.029,0.004C20.552,24.045,20.552,25.007,20.552,25.975z     M18.906,31.979c-0.007,0.132-0.002,0.265-0.002,0.403c-0.682,0-1.354,0-2.04,0c0-0.048,0-0.091,0-0.132    c0-0.905,0.002-1.812-0.001-2.719c-0.001-0.104,0.03-0.131,0.132-0.129c0.577,0.004,1.154,0.004,1.73,0    c0.109-0.002,0.145,0.029,0.136,0.139c-0.01,0.117-0.002,0.234-0.002,0.359c-0.449,0-0.885,0-1.34,0    c0,0.223-0.003,0.43,0.005,0.637c0,0.02,0.066,0.053,0.102,0.054c0.333,0.003,0.667,0.001,1,0.002    c0.045,0,0.091,0.005,0.142,0.009c0,0.166,0,0.322,0,0.489c-0.054,0.002-0.104,0.008-0.152,0.008c-0.33,0-0.659,0.002-0.989-0.002    c-0.084,0-0.111,0.026-0.109,0.11c0.004,0.219,0.001,0.436,0.001,0.664c0.053,0.002,0.095,0.006,0.136,0.006    c0.384,0,0.767,0.002,1.15-0.002C18.885,31.875,18.91,31.9,18.906,31.979z M25.354,29.406c0.17,0,0.342,0,0.522,0    c0,0.18,0,0.34,0,0.512c-0.221,0-0.435,0-0.647,0.002c-0.267,0.002-0.221-0.026-0.224,0.221c-0.002,0.703,0,1.404,0,2.107    c0,0.041,0,0.084,0,0.143c-0.206,0-0.402,0.001-0.598-0.003c-0.02,0-0.049-0.036-0.055-0.062    c-0.009-0.037-0.004-0.078-0.004-0.117c0-0.723-0.002-1.447,0.002-2.172c0-0.096-0.029-0.123-0.122-0.119    c-0.218,0.005-0.437-0.002-0.655,0.003c-0.08,0.002-0.109-0.025-0.104-0.104c0.005-0.098,0.007-0.193-0.001-0.291    c-0.008-0.098,0.031-0.121,0.123-0.121C24.178,29.407,24.766,29.406,25.354,29.406z M12.083,29.458    c-0.316-0.119-0.639-0.141-0.969-0.075c-0.368,0.073-0.652,0.265-0.84,0.59c-0.154,0.268-0.222,0.557-0.251,0.864    c0.027,0.212,0.037,0.427,0.083,0.635c0.086,0.388,0.307,0.681,0.676,0.849c0.34,0.154,0.696,0.185,1.058,0.103    c0.386-0.089,0.691-0.296,0.859-0.664c0.239-0.523,0.268-1.062,0.058-1.604C12.631,29.831,12.417,29.585,12.083,29.458z     M12.208,30.874c0.001,0.229-0.014,0.459-0.109,0.672c-0.14,0.314-0.336,0.441-0.657,0.434c-0.319-0.008-0.527-0.17-0.626-0.464    c-0.138-0.412-0.139-0.832,0.005-1.24c0.108-0.308,0.351-0.459,0.669-0.455c0.289,0.004,0.528,0.168,0.626,0.467    c0.061,0.188,0.082,0.389,0.12,0.584C12.226,30.872,12.217,30.874,12.208,30.874z M16.145,29.527    c-0.004,0.666-0.002,1.332-0.002,1.998c0,0.254-0.002,0.508,0.001,0.764c0.001,0.082-0.029,0.104-0.105,0.104    c-0.229-0.003-0.459-0.003-0.688,0c-0.071,0-0.106-0.022-0.137-0.09c-0.344-0.747-0.692-1.491-1.04-2.235    c-0.011-0.021-0.023-0.043-0.049-0.091c0,0.771,0,1.515,0,2.254c0,0.159,0,0.16-0.165,0.16c-0.146,0-0.292,0-0.444,0    c0-1,0-1.983,0-2.985c0.085,0,0.166,0,0.247,0c0.19,0,0.38,0.004,0.569-0.002c0.08-0.002,0.12,0.026,0.154,0.1    c0.333,0.707,0.67,1.414,1.007,2.121c0.007,0.018,0.016,0.033,0.039,0.049c0-0.049,0-0.096,0-0.143c0-0.666,0.002-1.332-0.002-2    c0-0.101,0.028-0.134,0.127-0.127c0.122,0.008,0.244,0.006,0.365,0C16.117,29.4,16.146,29.43,16.145,29.527z" fill="#1f1f1f"/>
	</g>
</g>
<g>
</g>
<g>
</g>
<g>
</g>
<g>
</g>
<g>
</g>
<g>
</g>
<g>
</g>
<g>
</g>
<g>
</g>
<g>
</g>
<g>
</g>
<g>
</g>
<g>
</g>
<g>
</g>
<g>
</g>
</svg>
